<?xml version="1.0" encoding="UTF-8"?>
<svg version="1.1" xmlns="http://www.w3.org/2000/svg" width="60" height="60">
<path d="M0 0 C3.58598889 2.54054385 6.15992797 5.04327701 8.4921875 8.765625 C8.90210938 9.38695312 9.31203125 10.00828125 9.734375 10.6484375 C13.58244889 17.62804738 13.74273274 26.02607545 12.4921875 33.765625 C10.09120579 41.34186763 6.27912589 47.51322792 -0.5078125 51.765625 C-1.12914062 52.17554688 -1.75046875 52.58546875 -2.390625 53.0078125 C-9.37023488 56.85588639 -17.76826295 57.01617024 -25.5078125 55.765625 C-33.08405513 53.36464329 -39.25541542 49.55256339 -43.5078125 42.765625 C-43.91773438 42.14429688 -44.32765625 41.52296875 -44.75 40.8828125 C-48.59807389 33.90320262 -48.75835774 25.50517455 -47.5078125 17.765625 C-45.10683079 10.18938237 -41.29475089 4.01802208 -34.5078125 -0.234375 C-33.88648438 -0.64429688 -33.26515625 -1.05421875 -32.625 -1.4765625 C-22.455808 -7.08315125 -9.72162164 -5.63801363 0 0 Z M-39.3203125 8.328125 C-43.93496363 13.9588461 -45.69871112 20.49847933 -45.375 27.734375 C-43.91279074 37.41154176 -40.0961029 42.61467127 -32.921875 49.06640625 C-26.18767007 53.80650195 -18.41662978 53.46764361 -10.5078125 52.765625 C-3.77323955 51.11654335 1.33208423 47.25480022 5.4921875 41.765625 C9.88625266 34.33978844 11.20287802 27.33685411 9.6171875 18.890625 C7.48299475 11.22693286 2.88150309 5.56557758 -3.81640625 1.29296875 C-16.89721345 -5.03206627 -29.28405117 -1.79229785 -39.3203125 8.328125 Z " fill="#DD9626" transform="translate(47.5078125,4.234375)"/>
<path d="M0 0 C8.58 0 17.16 0 26 0 C26 6.6 26 13.2 26 20 C24.68 20 23.36 20 22 20 C22 20.66 22 21.32 22 22 C22.763125 21.773125 23.52625 21.54625 24.3125 21.3125 C27 21 27 21 28.875 22.0625 C30.51826302 24.89256409 29.67499566 26.89501995 29 30 C29.33 30.33 29.66 30.66 30 31 C30.04063832 32.66617115 30.042721 34.33388095 30 36 C28.35 36 26.7 36 25 36 C25 35.34 25 34.68 25 34 C25.99 34 26.98 34 28 34 C27.67 33.34 27.34 32.68 27 32 C24.97536745 31.34786708 24.97536745 31.34786708 23 31 C23.33 32.65 23.66 34.3 24 36 C22.68 36 21.36 36 20 36 C20.185625 34.96875 20.37125 33.9375 20.5625 32.875 C20.98295498 29.15097022 21.15847785 26.55818195 20 23 C15.96077173 20.34925645 10.7210754 20.39085156 6 20 C6.020625 21.093125 6.04125 22.18625 6.0625 23.3125 C6 27 6 27 5 30 C5.27571139 32.00875442 5.60235737 34.01178687 6 36 C2.7 36 -0.6 36 -4 36 C-4 33.33333333 -4 30.66666667 -4 28 C-4.01160156 27.13246094 -4.02320313 26.26492187 -4.03515625 25.37109375 C-4.04417969 24.40300781 -4.05320312 23.43492188 -4.0625 22.4375 C-4.07410156 21.46683594 -4.08570313 20.49617188 -4.09765625 19.49609375 C-4 17 -4 17 -3 15 C-3.20625 14.360625 -3.4125 13.72125 -3.625 13.0625 C-3.74875 12.381875 -3.8725 11.70125 -4 11 C-3.319375 10.38125 -3.319375 10.38125 -2.625 9.75 C-0.13503965 7.41028505 -0.13503965 7.41028505 0 0 Z M2 2 C1.7497843 4.91634129 1.7497843 4.91634129 2 8 C3.485 8.99 3.485 8.99 5 10 C4.67 7.36 4.34 4.72 4 2 C3.34 2 2.68 2 2 2 Z M6 2 C5.67 3.32 5.34 4.64 5 6 C5.33 5.34 5.66 4.68 6 4 C7.98 4 9.96 4 12 4 C11.67 3.34 11.34 2.68 11 2 C9.35 2 7.7 2 6 2 Z M14 2 C13.814375 2.94875 13.62875 3.8975 13.4375 4.875 C12 8 12 8 8.375 9.375 C6.704375 9.684375 6.704375 9.684375 5 10 C3.98459888 14.10223585 3.98459888 14.10223585 5 18 C7.64 18 10.28 18 13 18 C13.66 16.35 14.32 14.7 15 13 C20.625 12.75 20.625 12.75 24 15 C24 10.71 24 6.42 24 2 C20.7 2 17.4 2 14 2 Z M6 6 C6.66 6.66 7.32 7.32 8 8 C8.99 7.34 9.98 6.68 11 6 C9.35 6 7.7 6 6 6 Z M-1 10 C-1 11.32 -1 12.64 -1 14 C0.32 14 1.64 14 3 14 C2.67 12.68 2.34 11.36 2 10 C1.01 10 0.02 10 -1 10 Z M16 14 C15.67 14.66 15.34 15.32 15 16 C16.98 16 18.96 16 21 16 C20.67 15.34 20.34 14.68 20 14 C18.68 14 17.36 14 16 14 Z M21 16 C22 18 22 18 22 18 Z M-1 17 C-1.33 18.65 -1.66 20.3 -2 22 C-0.35 22 1.3 22 3 22 C3 20.35 3 18.7 3 17 C1.68 17 0.36 17 -1 17 Z M15 18 C15.66 18.66 16.32 19.32 17 20 C19.10820797 19.6814823 19.10820797 19.6814823 21 19 C21 18.67 21 18.34 21 18 C19.02 18 17.04 18 15 18 Z M0 23 C-0.66 24.32 -1.32 25.64 -2 27 C0.475 27.495 0.475 27.495 3 28 C3 26.68 3 25.36 3 24 C2.01 23.67 1.02 23.34 0 23 Z M23 24 C23 25.32 23 26.64 23 28 C24.65 27.67 26.3 27.34 28 27 C27.34 25.68 26.68 24.36 26 23 C24.7763932 22.9254644 24.7763932 22.9254644 23 24 Z M-1 31 C-1.33 31.99 -1.66 32.98 -2 34 C-0.02 34 1.96 34 4 34 C3.67 33.01 3.34 32.02 3 31 C1.68 31 0.36 31 -1 31 Z " fill="#F5A425" transform="translate(17,12)"/>
<path d="M0 0 C2.3125 1.4375 2.3125 1.4375 3.1875 3.375 C3.3125 5.4375 3.3125 5.4375 2.3125 8.4375 C2.6425 8.7675 2.9725 9.0975 3.3125 9.4375 C3.3125 11.0875 3.3125 12.7375 3.3125 14.4375 C0.0125 14.4375 -3.2875 14.4375 -6.6875 14.4375 C-6.6875 9.4375 -6.6875 9.4375 -5.6875 7.4375 C-5.96692455 5.76095271 -6.29578247 4.09141846 -6.6875 2.4375 C-3.41417157 -0.71459405 -3.41417157 -0.71459405 0 0 Z M-2.6875 1.4375 C-3.0175 3.0875 -3.3475 4.7375 -3.6875 6.4375 C-2.0375 6.1075 -0.3875 5.7775 1.3125 5.4375 C0.6525 4.1175 -0.0075 2.7975 -0.6875 1.4375 C-1.3475 1.4375 -2.0075 1.4375 -2.6875 1.4375 Z M-3.6875 9.4375 C-4.0175 10.4275 -4.3475 11.4175 -4.6875 12.4375 C-2.7075 12.4375 -0.7275 12.4375 1.3125 12.4375 C0.9825 11.4475 0.6525 10.4575 0.3125 9.4375 C-1.0075 9.4375 -2.3275 9.4375 -3.6875 9.4375 Z " fill="#F5A425" transform="translate(31.6875,33.5625)"/>
</svg>
