<?xml version="1.0" encoding="UTF-8"?>
<svg version="1.1" viewBox="0 0 1210 832" width="1210" height="832" xmlns="http://www.w3.org/2000/svg">
<path transform="translate(591,131)" d="m0 0 7 1 8 10 7 10 6 11 9 21 6 18 4 16h7l13-5 23-6 22-3h13l5 5v11l-1 16-6 26-5 15 6-2 14-8 17-5 14-4 16-2 7-1 9 1 3 3v23l-9 35 7-3 10-5 8-2 10-4 18-2h16l4 4-1 14-3 16-7 21-5 13-6 10-10 9-8 5-12 4-7 2-31 1h-10l-11-1-15-3-33-12-3-2-8-2-13-5-9-3-13-5-10-3-30-6h-40l-18 3-6 2-11 2-25 6-16 4-10 2-19 4-13 2-21 4-22 1-3 1-12 1h-24l-15-2-16-8-13-13-10-19-3-8-5-22v-24l5-2h9l18 2 21 6 12 6 5 3 5 1-6-22-3-22 1-7 4-3h16l23 4 18 6 10 4 11 7 4 1-3-9-3-7-3-12-3-17-1-24 4-5h18l20 3 18 5 16 5h6l5-12 10-21 6-10 11-16 6-8 11-12 5-6zm0 18-10 11-6 8-12 18-8 15-6 12-3 9 1 4 6 5 10 7 10 11 8 18 4 15h3l6-21 6-11 5-6 5-5 10-8 6-4v-7l-9-27-6-16-5-11-6-12-5-5zm-124 69-1 1v12l5 26 7 21 9 17 10 13 7 7 10 7 10 5 15 6 10 3 10 2 11 2h3l1-4-2-10-4-9-5-13-8-12-7-7-16-10-15-4-14-2h-13l-4-2 1-8 4-3 21 2 12 3h9l1-4-2-4-2-17-8-5-11-4-15-5-18-3zm232 0-16 2-14 4-17 5-9 4-3 7-2 15-1 7 3 1 23-5 20-2 4 3v8l-7 2-19 2-12 3-14 5-16 12-6 7-5 10-5 12-2 7-1 4v9l2 1 10-2 17-4 10-3 10-4 10-5 11-7 7-8 7-11 10-21 5-10 5-19 3-18v-9l-5-2zm-152 26-2 2 1 9 3 7 6 12 10 12 9 12h2v-12l-4-15-8-15-11-10zm77-1-8 6-7 9-6 10-6 19v13h2l6-10 8-10 5-8 6-14 2-7v-7zm-229 27-2 1v12l5 19 3 9 6 16 8 12 9 9 16 7 3 2h7v-3l-12-11-6-10-5-13-3-13-1-12 1-9 7-1h3l1 18 4 16 4 9 4 6 4 5 11 8 7 4 14 4 2 1h6l1-5-4-15-5-15-4-10-6-9-7-8-11-6-16-8-19-7-20-3zm371 1-17 3-19 7-18 10-1 3-3 1v2l-4 2-2 4h-2l-9 16-4 6-4 13-5 13v5l1 1h9l12-4 14-7 11-9 9-14 4-11 3-26 2-2 6 1 3 5-1 14-3 14-3 10-5 9-8 9v2h-2l-5 5-5 6 13-3 12-5 9-6 6-7 8-12 9-24 3-12 2-10v-8l-1-1zm-441 35-1 1v7l3 16 8 19 4 7 8 10 7 4h3l-1-4-7-12-4-12-2-9v-15l5-2 5 5 4 23 7 12 8 7 5 4 8 4 13 4h8l2-3-3-7-3-10-9-16-8-11-8-6-10-6-8-4-17-5-8-1zm502 9-7 3-12 3-13 7-13 13-7 11-5 13-5 11 1 6 3 1 12-5 8-4 9-9 8-15 2-9 2-14 2-2h6l2 3v8l-2 14-6 16-8 11-2 2v3l9-1 9-5 8-8 10-18 5-15 2-11v-8l-1-1zm-326 16v11l2 4 2 9 3 4h6l24-6 10-3-2-2-8-3-8-2-8-3-12-5-6-4zm164 2-10 6-7 3-13 4-1 2 3 3 10 2 11 3h5l3-7 2-9 1-6zm92 25-24 10-14 4-2 1 2 4 9 4 15 3 8-2 3-9 3-10 1-5zm-338 2-1 3 3 10 2 2h21l7-3 1-2-16-4z" fill="#E7C782"/>
<path transform="translate(142,420)" d="m0 0h24l20 1 12 3 8 4 4 4 3 7v15l-6 11-7 4h-2v2l-4 1 6 8 10 11 10 13 7 8 14 11 10 6 12 2 5 3v3l-9 3-5 1h-16l-16-5-9-7-8-7-8-10-12-20-8-11-7-11 1-3 3-2 9-3 5-6 2-5v-7l-4-9-6-4-12-1h-2v74l4 6v3l-18 1-13-1-2-2 5-2 1-6v-70l-3-7-2-5z" fill="#E7C884"/>
<path transform="translate(475,420)" d="m0 0h2l4 7 7 15 8 20 8 15 8 19 7 11 3 2h10l4-3v-79l-1-5 1-1h24l1 4-2 3v78h11l14-2 6-4 6-6 2-4h2v14l-3 8-1 1-24 1-49-1h-34v-4l1-1-1-9-4-8-1-1h-29l-4 10-1 2v6l1 4-1 1h-21l-2-1v-2l7-3 3-3 5-11 5-13 4-7 4-11 12-25 5-11zm-6 35-4 7-3 9-3 6 1 5h21l-1-9-3-9-4-8z" fill="#E7C883"/>
<path transform="translate(988,420)" d="m0 0 4 1 8 8 8 7 9 8 20 20 5 4 4 5 6 3 1-2v-44l-3-8 1-1 7-1h17l4 1-2 5-1 2-1 16-1 68-2 1-10-7-28-28-8-7-10-9v-2l-3-1v-2h-4v32l1 15 3 5 3 3-8 2h-17l-10-1-1-3 5-2 1-2 1-11v-74z" fill="#E7C884"/>
<path transform="translate(275,419)" d="m0 0h12l12 2 11 4 11 8 6 5 6 13 1 7v19l-3 12-4 7-11 11-16 7-12 2h-11l-16-2-11-4-10-9-7-7-3-8-2-7-1-10 1-13 3-12 7-9 8-7 8-5 9-3zm4 7-10 3-7 4-7 10-3 7-2 14v9l4 16 3 7 8 8 7 3 11 1 10-2 9-7 4-5 3-8 2-10v-17l-3-13-5-9-6-5-7-5-4-1z" fill="#E7C984"/>
<path transform="translate(899,420)" d="m0 0h9l6 2-2 4-5 5-6 5-6 9-8 9-2 3 1 7 7 10 6 8 11 14 5 6 9 6 6 2 6-1 1-1 1-14v-64l-3-5-2-4 2-1h22l7 2-2 6v76l5 5 2 1-1 3-11 1h-15l-15-1-9 1h-10l-7-2-7-3-5-5-10-11-7-11-5-8-1-6 4-7 13-17 7-10 5-6v-7z" fill="#E8C986"/>
<path transform="translate(627,420)" d="m0 0h47l1 1v11l-1 7-2-1-2-5-5-3-20-1h-5v35h14l8-2 6-4 1 5v14l-1 3h-2l-4-5-7-3h-16l1 33 3 1 21-1 6-2 2-4 6-9 3 1-1 9-2 11-2 2-21 1h-32l-11-1v-4l4-7 1-5v-67l-4-8 1-1z" fill="#E7C884"/>
<path transform="translate(778,419)" d="m0 0h23l11 1 2 2v11l-2 5-4-1-4-7-7-2h-13l-5 4-2 4 1 7 5 5 10 7 15 9 9 8 3 6 1 12-2 9-5 8-9 6-10 2h-20l-14-3-4-5-1-2 1-10 3-9 3 1 6 12 4 5 9 3h9l8-2 3-4 1-7-3-7-8-6-11-7-14-9-5-6-3-6-1-5v-7l3-10 7-8z" fill="#E8C986"/>
<path transform="translate(358,420)" d="m0 0h8l7 2v10l7 14 9 14 3-1 10-18 6-11-1-8 1-1h19l1 2-5 5-12 17-7 11-4 6-5 9v29l2 7 5 5-3 1-20 1-12-1-1-3 4-2 2-9 1-21-2-9-12-20-7-11-8-11-4-4 1-2z" fill="#E7C985"/>
<path transform="translate(542,547)" d="m0 0h25v4l-3 1-1 2-1 22h22l-1-21-4-4v-4h25v4l-4 2v55l4 3v3h-25l1-4 3-3 1-25h-22l1 26 4 3v3h-26l1-4 3-2v-55l-4-3z" fill="#E7C780"/>
<path transform="translate(836,420)" d="m0 0 28 1 1 4-2 5-1 13v59l2 7 3 1-1 3-20 1-11-1-2-2 5-4 1-3v-76l-2-5h-2z" fill="#E7C985"/>
<path transform="translate(899,420)" d="m0 0h9l6 2-2 4-5 5-6 5-6 9-8 9-2 3 1 7 7 10 6 8 11 14 5 6 5 4 2 3 4 2-2 2-6 1h-10l-7-2-7-3-5-5-10-11-7-11-5-8-1-6 4-7 13-17 7-10 5-6v-7z" fill="#E7C984"/>
<path transform="translate(614,547)" d="m0 0h48v16h-7l-3-6v-2l-3-1-15-1v24l10-2 3-6h5l1 1v19h-6l-4-6-9-1v26l15-1 4-5 3-6h6v16l-1 2h-48v-3l4-2 1-3v-51l-5-5z" fill="#E7C780"/>
<path transform="translate(370,547)" d="m0 0h48v16h-7l-4-8-2-1-15-1v24l10-2 3-6h5l1 1v19h-6l-4-6-9-1v26l15-1 4-5 3-6h6v17l-1 1h-48v-3l4-2 1-3v-51l-5-5z" fill="#E7C780"/>
<path transform="translate(328,547)" d="m0 0h13l17 57 3 5 3 2v3h-27v-3l4-3-1-10-1-5h-21l-2 8v9l4 1v3h-21v-3l5-4 6-14 17-45zm1 14-9 25v2h17l-1-8-5-18z" fill="#E7C780"/>
<path transform="translate(843,547)" d="m0 0h20l6 2v14h-7l-3-7-5-3h-6l-5 3-1 7 3 5 18 12 5 6 2 5v8l-3 7-5 5-6 3-5 1h-11l-14-2v-15h7l4 8 4 2h9l4-4 1-6-2-5-6-5-12-7-6-7-2-5v-7l3-7 5-5z" fill="#E7C780"/>
<path transform="translate(444,547)" d="m0 0h20l6 2v14h-7l-4-8-4-2-9 1-3 3v8l5 5 16 10 4 5 2 4v12l-3 6-6 5-9 3h-12l-13-2v-15h7l3 7 4 3h9l5-5v-8l-4-5-14-8-5-4-4-7v-11l3-6 5-4z" fill="#E7C780"/>
<path transform="translate(670,547)" d="m0 0h57v17h-7l-4-9-10-2 1 54 3 3 2 1v3h-27v-3l4-2 1-2 1-54-10 2-3 5-1 4h-7z" fill="#E7C780"/>
<path transform="translate(476,547)" d="m0 0h57v17h-7l-3-8-3-2-8-1 1 54 3 3 2 1v3h-27v-3l5-3 1-55-10 2-4 9h-7z" fill="#E7C780"/>
<path transform="translate(793,547)" d="m0 0h19l7 2v14h-7l-4-8-4-2-8 1-5 5-3 7-1 5v21l3 10 4 5 2 1h9l4-4 3-6h7v14l-6 2-7 1h-12l-10-3-6-4-5-8-2-7-1-15 3-14 5-8 7-6z" fill="#E7C780"/>
<path transform="translate(735,547)" d="m0 0h25v4l-3 2-1 4v47l2 5 3 2v3h-26l1-4 3-2v-55l-4-2z" fill="#E7C780"/>
<path transform="translate(510,641)" d="m0 0h11l-2 2 1 9 4 14 7-25h5l6 25 6-18v-5l-2-2h10l-4 8-9 25h-4l-6-24-3 8-5 16h-4l-7-24-2-8z" fill="#E7C780"/>
<path transform="translate(478,640)" d="m0 0 7 1 3 3-1 7-5 4h-2l3 5 5 5 2-3-1-7h6l-1 8-3 4 1 3h6l-2 4h-7l-4-2-4 2h-9l-4-2-1-2v-8l5-5h2l-3-6v-6l4-4zm1 2-4 3 1 7 1 2 5-2 2-3v-5zm-4 16-4 4v6l5 4 6-1 2-1-2-5-6-7z" fill="#E7C780"/>
<path transform="translate(307,641)" d="m0 0h20l4 3v8l-4 5 5 5-1 8-3 3-4 1h-17l2-3v-28zm8 2v13l9-1 3-5-1-5-3-2zm0 15v14h7l4-2 1-2v-6l-4-4z" fill="#E7C780"/>
<path transform="translate(829,650)" d="m0 0 15 1v2l-4 1 1 6-3 5-2 1-9 1v3l12 1 4 3v6l-4 4-3 1h-9l-5-3-1-4 2-5v-5l2-3-2-3v-8l3-3zm1 2-3 3v7l2 2h5l2-2v-7l-3-3zm-3 22-2 3 1 5 2 1h8l3-3-1-5z" fill="#E7C780"/>
<path transform="translate(611,650)" d="m0 0 3 1 1 2 5-3 5 1 3 4v17l3 1v1h-10l2-3v-13l-2-4-5 1-1 1-1 16h2v2h-9l1-2v-19l-2-2z" fill="#E7C780"/>
<path transform="translate(385,651)" d="m0 0h7l1 16 1 3 7-1v-16l-1-2h7v21l3 1v1h-7l-1-3-4 3h-7l-3-5-1-16z" fill="#E7C780"/>
<path transform="translate(798,650)" d="m0 0h3l1 3 6-3 6 2 1 3 1 16 2 3h-10l2-3v-17l-7 1-1 2v14l2 3h-10l2-3v-19l-2-1z" fill="#E7C780"/>
<path transform="translate(429,651)" d="m0 0h10l-2 2 1 6 2 9h2l3-9 1-6-2-2h9l-9 19-6 12-5 3-4-1v-4h6l3-5-3-10-5-12z" fill="#E7C780"/>
<path transform="translate(766,651)" d="m0 0h7l1 18 1 1h5l2-2v-15l-2-2h7l1 20 2 3h-7l-1-3-3 3h-8l-2-3-1-19z" fill="#E7C780"/>
<path transform="translate(749,650)" d="m0 0 8 1 4 5 1 7-2 7-5 4h-9l-5-5-1-3v-7l3-6zm0 2-4 4v12l3 4h6l3-5v-9l-3-5z" fill="#E7C780"/>
<path transform="translate(643,650)" d="m0 0 8 1 3 4 1 7h-16l3 8h8l4-1-1 3-4 2h-9l-4-4-1-3v-9l3-5zm0 2-3 3v5h10v-5l-3-3z" fill="#E7C780"/>
<path transform="translate(714,641)" d="m0 0h10l-2 2-1 29 9-1 2-2 2-5h2v10h-22l2-4v-25z" fill="#E7C780"/>
<path transform="translate(370,650)" d="m0 0 7 1 2 2 1 16 2 5h-6v-3l-5 3h-7l-3-4 1-5 4-3 9-1-1-8h-7l-1 3h-4l2-4zm-1 13-4 4 1 4 5 1 4-3v-6z" fill="#E7C780"/>
<path transform="translate(855,650)" d="m0 0 8 1 3 4 1 7h-16l3 8h8l4-1v2l-5 3h-9l-4-4-1-3v-9l3-5zm0 2-3 3-1 5h11l-1-6-2-2z" fill="#E7C780"/>
<path transform="translate(564,650)" d="m0 0 7 1 4 5v6h-15l2 7 1 1h7l4-1-2 4-2 1h-9l-5-5-1-8 3-8zm0 2-3 3-1 5h11l-2-7z" fill="#E7C780"/>
<path transform="translate(346,650)" d="m0 0 7 1 3 3 1 8h-15l2 7 1 1h7l4-1-2 4-2 1h-9l-5-5-1-8 3-8zm0 2-3 3-1 5h11l-2-7z" fill="#E7C780"/>
<path transform="translate(666,650)" d="m0 0 9 1v5l-3-1v-2h-8l1 5 9 5 2 3-1 5-3 3h-12l-1-1v-5l4 2v2l7-1 1-3-3-3-8-5v-7z" fill="#E7C780"/>
<path transform="translate(687,650)" d="m0 0h7l3 1v5h-3l-2-3h-5l-1 4 4 3 5 3 2 2v6l-4 3h-11l-1-1v-5h2l2 3h7l-1-5-8-5-2-2 1-6z" fill="#E7C780"/>
<path transform="translate(593,639)" d="m0 0h7v33l3 1v1h-10l2-4v-29h-2z" fill="#E7C780"/>
<path transform="translate(416,645)" d="m0 0h4v6h8v2h-8l1 18 7-1-1 3-2 1h-7l-2-3v-18l-4-1 3-2z" fill="#E7C780"/>
<path transform="translate(579,639)" d="m0 0h7l1 32 2 3h-10l2-3v-29l-2-1z" fill="#E7C780"/>
<path transform="translate(920,507)" d="m0 0 10 3h6v3h-12l1-2-5-3z" fill="#FBF9F4"/>
</svg>
